<svg xmlns="http://www.w3.org/2000/svg" viewBox="0 0 1000 760" font-family="Arial, sans-serif">
<rect x="0" y="0" width="1000" height="760" fill="#ece6d8"/>
<rect x="40" y="70" width="920" height="600" fill="#fff" stroke="#1a1a1a" stroke-width="4" rx="6"/>
<text x="500.0" y="48" text-anchor="middle" font-size="17" font-weight="bold" fill="#888" letter-spacing="3">UPSTAGE  /  FUNDO DO PALCO</text>
<text x="500.0" y="708" text-anchor="middle" font-size="17" font-weight="bold" fill="#888" letter-spacing="3">DOWNSTAGE  /  FRENTE  •  PLATEIA</text>
<g><rect x="128" y="140" width="84" height="58" fill="#d9a8ff" stroke="#1a1a1a" stroke-width="2.5" rx="4"/><line x1="138" y1="154.5" x2="202" y2="154.5" stroke="#1a1a1a" stroke-width="1" opacity="0.4"/><line x1="138" y1="169.0" x2="202" y2="169.0" stroke="#1a1a1a" stroke-width="1" opacity="0.4"/><line x1="138" y1="183.5" x2="202" y2="183.5" stroke="#1a1a1a" stroke-width="1" opacity="0.4"/><text x="170.0" y="213" text-anchor="middle" font-size="12" font-weight="bold" fill="#1a1a1a">Guitarra base</text><circle cx="204" cy="132" r="13" fill="#ff4d1a" stroke="#fff" stroke-width="2"/><text x="204" y="136.5" text-anchor="middle" font-size="13" font-weight="bold" fill="#fff">3</text></g>
<g><rect x="788" y="140" width="84" height="58" fill="#d9a8ff" stroke="#1a1a1a" stroke-width="2.5" rx="4"/><line x1="798" y1="154.5" x2="862" y2="154.5" stroke="#1a1a1a" stroke-width="1" opacity="0.4"/><line x1="798" y1="169.0" x2="862" y2="169.0" stroke="#1a1a1a" stroke-width="1" opacity="0.4"/><line x1="798" y1="183.5" x2="862" y2="183.5" stroke="#1a1a1a" stroke-width="1" opacity="0.4"/><text x="830.0" y="213" text-anchor="middle" font-size="12" font-weight="bold" fill="#1a1a1a">Guitarra solo</text><circle cx="864" cy="132" r="13" fill="#ff4d1a" stroke="#fff" stroke-width="2"/><text x="864" y="136.5" text-anchor="middle" font-size="13" font-weight="bold" fill="#fff">8</text></g>
<g><rect x="328" y="140" width="84" height="58" fill="#d9a8ff" stroke="#1a1a1a" stroke-width="2.5" rx="4"/><line x1="338" y1="154.5" x2="402" y2="154.5" stroke="#1a1a1a" stroke-width="1" opacity="0.4"/><line x1="338" y1="169.0" x2="402" y2="169.0" stroke="#1a1a1a" stroke-width="1" opacity="0.4"/><line x1="338" y1="183.5" x2="402" y2="183.5" stroke="#1a1a1a" stroke-width="1" opacity="0.4"/><text x="370.0" y="213" text-anchor="middle" font-size="12" font-weight="bold" fill="#1a1a1a">Baixo</text><circle cx="404" cy="132" r="13" fill="#ff4d1a" stroke="#fff" stroke-width="2"/><text x="404" y="136.5" text-anchor="middle" font-size="13" font-weight="bold" fill="#fff">5</text></g>
<rect x="420" y="152" width="34" height="24" fill="#fff" stroke="#1a1a1a" stroke-width="2.5" rx="3"/><text x="437" y="168" text-anchor="middle" font-size="11" font-weight="bold" fill="#1a1a1a">DI</text><circle cx="450" cy="148" r="13" fill="#ff4d1a" stroke="#fff" stroke-width="2"/><text x="450" y="152.5" text-anchor="middle" font-size="13" font-weight="bold" fill="#fff">6</text>
<g><rect x="480" y="95" width="190" height="150" fill="none" stroke="#1a1a1a" stroke-width="2" stroke-dasharray="8 5" rx="6"/><text x="575" y="90" text-anchor="middle" font-size="11" fill="#888" font-weight="bold">RISER</text><circle cx="575" cy="192" r="26" fill="#bbb" stroke="#1a1a1a" stroke-width="2.5"/><text x="575" y="196" text-anchor="middle" font-size="10" font-weight="bold">KICK</text><circle cx="541" cy="168" r="15" fill="#ddd" stroke="#1a1a1a" stroke-width="2"/><text x="541" y="172" text-anchor="middle" font-size="8" font-weight="bold">SN</text><circle cx="567" cy="140" r="13" fill="#ddd" stroke="#1a1a1a" stroke-width="2"/><circle cx="597" cy="144" r="13" fill="#ddd" stroke="#1a1a1a" stroke-width="2"/><circle cx="523" cy="136" r="17" fill="none" stroke="#1a1a1a" stroke-width="1.5"/><circle cx="625" cy="140" r="19" fill="none" stroke="#1a1a1a" stroke-width="1.5"/><circle cx="517" cy="178" r="12" fill="none" stroke="#1a1a1a" stroke-width="1.5"/><text x="575" y="232" text-anchor="middle" font-size="12" font-weight="bold" fill="#1a1a1a">BATERIA</text><circle cx="663" cy="102" r="13" fill="#ff4d1a" stroke="#fff" stroke-width="2"/><text x="663" y="106.5" text-anchor="middle" font-size="13" font-weight="bold" fill="#fff">1</text></g>
<g><circle cx="170" cy="320" r="30" fill="#1a1a1a"/><text x="170" y="324" text-anchor="middle" font-size="12" font-weight="bold" fill="#fff">GUIT.</text><text x="170" y="367" text-anchor="middle" font-size="11" fill="#555">base + back vocal</text></g>
<g><circle cx="370" cy="320" r="30" fill="#1a1a1a"/><text x="370" y="324" text-anchor="middle" font-size="12" font-weight="bold" fill="#fff">BAIXO</text><text x="370" y="367" text-anchor="middle" font-size="11" fill="#555">+ back vocal</text></g>
<g><circle cx="830" cy="320" r="30" fill="#1a1a1a"/><text x="830" y="324" text-anchor="middle" font-size="12" font-weight="bold" fill="#fff">GUIT.</text><text x="830" y="367" text-anchor="middle" font-size="11" fill="#555">solo</text></g>
<g><circle cx="575" cy="440" r="30" fill="#1a1a1a"/><text x="575" y="444" text-anchor="middle" font-size="12" font-weight="bold" fill="#fff">VOCAL</text><text x="575" y="487" text-anchor="middle" font-size="11" fill="#555">à frente do palco</text></g>
<g><line x1="270" y1="500" x2="270" y2="526" stroke="#1a1a1a" stroke-width="3"/><circle cx="270" cy="500" r="11" fill="#fff" stroke="#1a1a1a" stroke-width="3"/><circle cx="270" cy="500" r="4" fill="#1a1a1a"/><text x="270" y="544" text-anchor="middle" font-size="11" font-weight="bold" fill="#1a1a1a">Mic compartilhado (base+baixo)</text><circle cx="286" cy="486" r="13" fill="#ff4d1a" stroke="#fff" stroke-width="2"/><text x="286" y="490.5" text-anchor="middle" font-size="13" font-weight="bold" fill="#fff">4</text></g>
<g><line x1="575" y1="530" x2="575" y2="556" stroke="#1a1a1a" stroke-width="3"/><circle cx="575" cy="530" r="11" fill="#fff" stroke="#1a1a1a" stroke-width="3"/><circle cx="575" cy="530" r="4" fill="#1a1a1a"/><text x="575" y="574" text-anchor="middle" font-size="11" font-weight="bold" fill="#1a1a1a">Mic vocal</text><circle cx="591" cy="516" r="13" fill="#ff4d1a" stroke="#fff" stroke-width="2"/><text x="591" y="520.5" text-anchor="middle" font-size="13" font-weight="bold" fill="#fff">2</text></g>
<g><line x1="830" y1="500" x2="830" y2="526" stroke="#1a1a1a" stroke-width="3"/><circle cx="830" cy="500" r="11" fill="#fff" stroke="#1a1a1a" stroke-width="3"/><circle cx="830" cy="500" r="4" fill="#1a1a1a"/><text x="830" y="544" text-anchor="middle" font-size="11" font-weight="bold" fill="#1a1a1a">Mic guit. solo</text><circle cx="846" cy="486" r="13" fill="#ff4d1a" stroke="#fff" stroke-width="2"/><text x="846" y="490.5" text-anchor="middle" font-size="13" font-weight="bold" fill="#fff">7</text></g>
<g transform="rotate(0 170 570)"><polygon points="142,570 198,570 188,592 152,592" fill="#fff" stroke="#1a1a1a" stroke-width="2.5"/><text x="170" y="585" text-anchor="middle" font-size="10" font-weight="bold" fill="#1a1a1a" transform="rotate(0 170 582)">MON</text></g><circle cx="196" cy="572" r="13" fill="#ff4d1a" stroke="#fff" stroke-width="2"/><text x="196" y="576.5" text-anchor="middle" font-size="13" font-weight="bold" fill="#fff">9</text>
<g transform="rotate(0 575 596)"><polygon points="547,596 603,596 593,618 557,618" fill="#fff" stroke="#1a1a1a" stroke-width="2.5"/><text x="575" y="611" text-anchor="middle" font-size="10" font-weight="bold" fill="#1a1a1a" transform="rotate(0 575 608)">MON</text></g><circle cx="601" cy="598" r="13" fill="#ff4d1a" stroke="#fff" stroke-width="2"/><text x="601" y="602.5" text-anchor="middle" font-size="13" font-weight="bold" fill="#fff">10</text>
<g transform="rotate(0 830 570)"><polygon points="802,570 858,570 848,592 812,592" fill="#fff" stroke="#1a1a1a" stroke-width="2.5"/><text x="830" y="585" text-anchor="middle" font-size="10" font-weight="bold" fill="#1a1a1a" transform="rotate(0 830 582)">MON</text></g><circle cx="856" cy="572" r="13" fill="#ff4d1a" stroke="#fff" stroke-width="2"/><text x="856" y="576.5" text-anchor="middle" font-size="13" font-weight="bold" fill="#fff">11</text>
<polygon points="100,678 160,678 148,708 112,708" fill="#ff4d1a" stroke="#1a1a1a" stroke-width="2"/>
<text x="130" y="698" text-anchor="middle" font-size="11" font-weight="bold" fill="#fff">PA</text>
<polygon points="840,678 900,678 888,708 852,708" fill="#ff4d1a" stroke="#1a1a1a" stroke-width="2"/>
<text x="870" y="698" text-anchor="middle" font-size="11" font-weight="bold" fill="#fff">PA</text>
<text x="60" y="94" text-anchor="middle" font-size="20" fill="#ff4d1a">⚡</text>
<text x="940" y="94" text-anchor="middle" font-size="20" fill="#ff4d1a">⚡</text>
<text x="60" y="114" text-anchor="middle" font-size="9" fill="#888">POWER</text>
<text x="940" y="114" text-anchor="middle" font-size="9" fill="#888">POWER</text>
</svg>